<svg width="159" height="40" viewBox="0 0 159 40" fill="none" xmlns="http://www.w3.org/2000/svg">
<g clip-path="url(#clip0)">
<path d="M15.0322 10.7768L0 40.0003H7.87176C10.0531 40.0003 12.0447 38.7768 13.0406 36.8474L25.7966 12.0944L16.1229 8.61206L15.0322 10.7768Z" fill="#FCC11A"/>
<path d="M23.8998 26.1649C24.8956 26.3531 25.6544 25.3178 25.1802 24.4237L22.4772 19.1531C19.9165 13.2707 15.0322 10.7766 15.0322 10.7766L19.5846 1.78839C20.7701 -0.564554 24.1369 -0.564554 25.3698 1.78839L44.6699 40.0002H36.6558C34.4745 40.0002 32.4829 38.7766 31.487 36.8472C31.0603 35.9531 30.2067 35.3413 29.2109 35.2002L20.3907 33.6472L16.6445 33.0354L20.3907 25.5531L23.8998 26.1649Z" fill="#FFD200"/>
<path d="M63.9697 18.2589V27.0118H60.0813V25.6942C59.5597 26.2118 58.137 27.2471 55.766 27.2471C53.0157 27.2471 51.4982 25.8353 51.356 23.7177C51.356 20.6589 53.4424 19.5765 56.4299 18.9648C58.8009 18.4471 59.7968 18.4471 59.9864 17.6471C60.1761 16.8 59.2751 15.953 57.8999 16C56.7144 16.0471 55.8135 16.5648 55.5764 17.6471L52.3044 16.9412C52.5889 15.1059 54.6279 12.8 58.1845 12.8C61.2668 12.8 63.9697 14.2118 63.9697 18.2589ZM60.1287 20.8471C60.1287 20.8471 58.8484 21.1295 56.999 21.553C55.5764 21.9295 55.1496 22.8706 55.4341 23.5765C55.6712 24.2353 56.5248 24.3765 57.4257 24.2353C58.9432 24.0001 60.0339 22.8236 60.1287 21.2706V20.8471Z" fill="#222222"/>
<path d="M80.8514 19.9995C80.8514 24.0466 78.1484 27.2466 74.0703 27.2466C72.5528 27.2466 71.2725 26.6819 70.3241 25.7877V33.3642H66.3882V12.9877H70.2766V14.1642C71.225 13.2701 72.5528 12.7524 74.0228 12.7524C78.101 12.7995 80.8514 15.9995 80.8514 19.9995ZM76.9155 19.9995C76.9155 17.9289 75.73 16.3289 73.5961 16.3289C71.5096 16.3289 70.2766 17.9289 70.2766 19.9995C70.2766 22.0701 71.5096 23.6701 73.5961 23.6701C75.73 23.7171 76.9155 22.1171 76.9155 19.9995Z" fill="#222222"/>
<path d="M82.3687 8.8942C82.3687 7.67067 83.3171 6.72949 84.55 6.72949C85.7355 6.72949 86.7313 7.67067 86.7313 8.8942C86.7313 10.0707 85.7829 11.0589 84.55 11.0589C83.3171 11.0589 82.3687 10.1177 82.3687 8.8942ZM82.6058 12.9883H86.4942V27.0118H82.6058V12.9883Z" fill="#222222"/>
<path d="M98.302 22.4471L101.527 24.0001C100.341 25.9295 98.2546 27.2471 95.6939 27.2471C91.6158 27.2471 88.5334 24.0471 88.5334 20.0001C88.5334 15.953 91.6158 12.8 95.6939 12.8C98.2546 12.8 100.341 14.0706 101.527 16.0471L98.302 17.6001C97.733 16.8471 96.8794 16.3295 95.6939 16.3295C93.6074 16.3295 92.3745 17.9295 92.3745 20.0001C92.3745 22.0706 93.56 23.6706 95.6939 23.6706C96.832 23.7177 97.733 23.2471 98.302 22.4471Z" fill="#222222"/>
<path d="M117.46 19.9998C117.46 24.0468 114.757 27.2468 110.679 27.2468C109.161 27.2468 107.881 26.6821 106.932 25.8351V27.0115H103.044V6.68213H106.932V14.2586C107.881 13.3645 109.209 12.8468 110.679 12.8468C114.757 12.7998 117.46 15.9998 117.46 19.9998ZM113.571 19.9998C113.571 17.9292 112.338 16.3292 110.252 16.3292C108.165 16.3292 106.932 17.9292 106.932 19.9998C106.932 22.0704 108.165 23.6704 110.252 23.6704C112.338 23.7174 113.571 22.1174 113.571 19.9998Z" fill="#222222"/>
<path d="M131.306 18.2589V27.0118H127.418V25.6942C126.896 26.2118 125.474 27.2471 123.103 27.2471C120.352 27.2471 118.835 25.8353 118.693 23.7177C118.693 20.6589 120.779 19.5765 123.767 18.9648C126.138 18.4471 127.133 18.4471 127.323 17.6471C127.513 16.8 126.612 15.953 125.237 16C124.051 16.0471 123.15 16.5648 122.913 17.6471L119.641 16.9412C119.926 15.1059 121.965 12.8 125.521 12.8C128.603 12.8 131.306 14.2118 131.306 18.2589ZM127.418 20.8471C127.418 20.8471 126.138 21.1295 124.288 21.553C122.866 21.9295 122.439 22.8706 122.723 23.5765C122.96 24.2353 123.814 24.3765 124.715 24.2353C126.232 24.0001 127.323 22.8236 127.418 21.2706V20.8471Z" fill="#222222"/>
<path d="M144.347 22.9648C144.252 25.5059 141.976 27.2 138.704 27.2C135.764 27.2 133.156 25.553 132.682 23.8589L135.527 22.353C135.811 23.0589 137.044 23.6706 138.04 23.7177C139.083 23.7648 140.269 23.5295 140.221 22.7765C140.174 21.9765 139.51 21.8824 137.566 21.2236C134.484 20.1412 133.156 19.1059 133.251 16.8C133.346 14.8706 134.91 12.8 138.562 12.8C141.976 12.8 143.588 14.9648 143.778 16.2824L140.79 17.1295C140.648 16.6589 140.174 16 139.083 15.9059C137.566 15.8118 137.187 16.5177 137.234 16.8942C137.281 17.4118 137.661 17.7883 139.89 18.4471C143.209 19.4824 144.442 20.8471 144.347 22.9648Z" fill="#222222"/>
<path d="M149.468 21.4118C149.895 22.7765 150.986 23.7177 152.598 23.7177C153.736 23.7177 154.637 23.2471 155.206 22.4471L158.431 24.0001C157.245 25.9295 155.159 27.2471 152.598 27.2471C148.52 27.2471 145.438 24.0471 145.438 20.0001C145.438 15.953 148.378 12.8 152.456 12.8C156.487 12.8 159 15.953 159 20.0001C159 20.5177 158.952 20.9412 158.905 21.4118H149.468ZM149.421 18.7295H155.301C154.969 17.3177 154.116 16.3295 152.456 16.3295C150.796 16.3295 149.8 17.3177 149.421 18.7295Z" fill="#222222"/>
</g>
<defs>
<clipPath id="clip0">
<rect width="159" height="40" fill="white"/>
</clipPath>
</defs>
</svg>
